<svg version="1.1" id="Layer_1" xmlns="http://www.w3.org/2000/svg" xmlns:xlink="http://www.w3.org/1999/xlink" x="0px" y="0px"
	 viewBox="0 0 700 414" enable-background="new 0 0 700 414" xml:space="preserve">
<path fill="#191919" d="M648.5,388.5V10c0-4.7-3.8-8.5-8.5-8.5H60c-4.7,0-8.5,3.8-8.5,8.5v378.5h-50V404c0,4.7,3.8,8.5,8.5,8.5h680
	c4.7,0,8.5-3.8,8.5-8.5v-15.5H648.5z"/>
<linearGradient id="SVGID_1_" gradientUnits="userSpaceOnUse" x1="86.9375" y1="-31.0625" x2="613.0625" y2="495.0625">
	<stop  offset="0" style="stop-color:#CD408F"/>
	<stop  offset="1" style="stop-color:#094FC3"/>
</linearGradient>
<path fill="url(#SVGID_1_)" d="M650,387V10c0-5.5-4.5-10-10-10H60c-5.5,0-10,4.5-10,10v377H0v17c0,5.5,4.5,10,10,10h680
	c5.5,0,10-4.5,10-10v-17H650z M53,10c0-3.9,3.1-7,7-7h580c3.9,0,7,3.1,7,7v377H53V10z M397,390.5v2c0,3.9-3.1,7-7,7h-80
	c-3.9,0-7-3.1-7-7v-2H397z M697,404c0,3.9-3.1,7-7,7H10c-3.9,0-7-3.1-7-7v-14h47h250v2.5c0,5.5,4.5,10,10,10h80c5.5,0,10-4.5,10-10
	V390h250h47V404z M70,370h560V20H70V370z M73,23h554v344H73V23z"/>
</svg>
